<svg height='300px' width='300px'  fill="#fff" xmlns="http://www.w3.org/2000/svg" xmlns:xlink="http://www.w3.org/1999/xlink" version="1.1" x="0px" y="0px" viewBox="0 0 100 100" style="enable-background:new 0 0 100 100;" xml:space="preserve"><g><path d="M35.9,31.4c-3.9,3.9-6,9-6,14.4s2.1,10.6,6,14.4c4,4,9.2,6,14.4,6c5.2,0,10.5-2,14.4-6c3.9-3.9,6-9,6-14.4   s-2.1-10.6-6-14.4C56.8,23.4,43.9,23.4,35.9,31.4z M61.1,56.6c-2.9,2.9-6.7,4.5-10.8,4.5s-7.9-1.6-10.8-4.5   c-2.9-2.9-4.5-6.7-4.5-10.8s1.6-7.9,4.5-10.8c2.9-2.9,6.7-4.5,10.8-4.5s7.9,1.6,10.8,4.5s4.5,6.7,4.5,10.8S64,53.7,61.1,56.6z"></path><path d="M75.9,20.3C69.1,13.4,60,9.7,50.4,9.7c0,0,0,0,0,0c-9.7,0-18.8,3.8-25.6,10.6c-9.8,9.8-13.1,24-8.7,37.1   c1.7,5.2,4.8,10.1,8.7,14l23.7,23.7c0.5,0.5,1.2,0.8,1.8,0.8c0.7,0,1.4-0.3,1.8-0.8l23.7-23.7c4-4,6.9-8.7,8.7-14   C89.1,44.3,85.7,30,75.9,20.3z M79.7,55.7c-1.5,4.5-4,8.6-7.5,12L50.4,89.6L28.5,67.7c-3.4-3.4-6-7.5-7.5-12   c-3.8-11.2-0.9-23.4,7.4-31.8c5.9-5.9,13.6-9.1,21.9-9.1c8.3,0,16,3.2,21.9,9.1C80.6,32.3,83.5,44.5,79.7,55.7z"></path></g></svg>