<?xml version="1.0" encoding="utf-8"?>
<!-- Generator: Adobe Illustrator 16.0.0, SVG Export Plug-In . SVG Version: 6.00 Build 0)  -->
<!DOCTYPE svg PUBLIC "-//W3C//DTD SVG 1.1//EN" "http://www.w3.org/Graphics/SVG/1.1/DTD/svg11.dtd">
<svg version="1.1" id="Layer_1" xmlns="http://www.w3.org/2000/svg" xmlns:xlink="http://www.w3.org/1999/xlink" x="0px" y="0px"
	 width="494.744px" height="115px" viewBox="0 0 494.744 115" enable-background="new 0 0 494.744 115" xml:space="preserve">
<text transform="matrix(1 0 0 1 5.9998 -290)" fill="#1C2F5B" font-family="'SegoeUI-Bold'" font-size="60">DHEEP</text>
<text transform="matrix(1 0 0 1 324.2034 -290)" fill="#1C2F5B" font-family="'SegoeUI-Light'" font-size="60">INSIGHTS</text>
<polygon fill="#F1A11F" points="301.5,-305 259.75,-352.5 216.25,-305 258.875,-288.5 "/>
<polygon fill="#007440" points="257.875,-344.625 223.625,-307.375 257.875,-294.375 "/>
<polygon fill="#F1A11F" points="303.75,-302.125 259.5,-284.625 213.75,-302.125 209,-297.375 258.5,-276.875 308.75,-297.125 "/>
<polygon fill="#007440" points="257.146,-297.657 292.811,-308.722 296.166,-307.126 257.597,-294.375 "/>
<polygon fill="#007440" points="251.187,-302.568 287.774,-313.884 291.141,-312.312 251.66,-299.289 "/>
<polygon fill="#007440" points="245.669,-308.685 282.257,-320.001 285.623,-318.429 246.143,-305.406 "/>
<polygon fill="#007440" points="239.887,-315.272 276.475,-326.588 279.84,-325.016 240.36,-311.993 "/>
<polygon fill="#007440" points="248.079,-324.565 271.317,-331.752 274.683,-330.18 252.582,-322.89 "/>
<polygon fill="#007440" points="248.271,-332.002 265.979,-337.479 269.343,-335.907 250.844,-329.805 "/>
<polygon fill="#007440" points="253.904,-340.052 260.483,-341.891 263.849,-340.318 253.648,-336.954 "/>
<path fill="#007440" d="M257.875-326.875"/>
<path fill="#F1A11F" d="M359.25-276.625h200.043c1.328,0,2.405-0.803,2.405-1.792l0,0c0-0.989-1.077-1.792-2.405-1.792H359.25"/>
<path fill="#007440" d="M352.457-276.625h-21.416c-0.988,0-1.791-0.803-1.791-1.792l0,0c0-0.989,0.803-1.792,1.791-1.792h21.416"/>
<circle fill="#F1A11F" cx="417.332" cy="-343.625" r="6"/>
<text transform="matrix(1 0 0 1 465.5002 -255.5)" fill="#333333" font-family="'SegoeUI-Bold'" font-size="18">Be Advised</text>
<text transform="matrix(1 0 0 1 4.9998 -106)" fill="#1C2F5B" font-family="'SegoeUI-Bold'" font-size="60">DHEEP</text>
<g>
	<text transform="matrix(1 0 0 1 323.2034 -106)" fill="#315694" font-family="'SegoeUI-Light'" font-size="60">INSIGHTS</text>
</g>
<polygon fill="#1C2F5B" points="300.5,-121 258.75,-168.5 215.25,-121 257.875,-104.5 "/>
<polygon fill="#315694" points="256.875,-160.625 222.625,-123.375 256.875,-110.375 "/>
<polygon fill="#1C2F5B" points="302.75,-118.125 258.5,-100.625 212.75,-118.125 208,-113.375 257.5,-92.875 307.75,-113.125 "/>
<polygon fill="#315694" points="256.146,-113.657 291.811,-124.722 295.166,-123.126 256.597,-110.375 "/>
<polygon fill="#315694" points="250.187,-118.568 286.774,-129.885 290.141,-128.313 250.66,-115.289 "/>
<polygon fill="#315694" points="244.669,-124.685 281.257,-136.001 284.623,-134.429 245.143,-121.406 "/>
<polygon fill="#315694" points="238.887,-131.271 275.475,-142.588 278.84,-141.016 239.36,-127.993 "/>
<polygon fill="#315694" points="247.079,-140.564 270.317,-147.752 273.683,-146.18 251.582,-138.891 "/>
<polygon fill="#315694" points="247.271,-148.002 264.979,-153.479 268.343,-151.907 249.844,-145.805 "/>
<polygon fill="#315694" points="252.904,-156.053 259.483,-157.891 262.849,-156.318 252.648,-152.953 "/>
<path fill="#315694" d="M256.875-142.875"/>
<path display="none" fill="#315694" d="M358.25-92.625h200.043c1.328,0,2.405-0.803,2.405-1.792l0,0
	c0-0.989-1.077-1.792-2.405-1.792H358.25"/>
<path display="none" fill="#315694" d="M351.457-92.625h-21.416c-0.988,0-1.791-0.803-1.791-1.792l0,0
	c0-0.989,0.803-1.792,1.791-1.792h21.416"/>
<circle fill="#1C2F5B" cx="416.332" cy="-159.625" r="6"/>
<text transform="matrix(1 0 0 1 464.5002 -80.5)" fill="#333333" font-family="'SegoeUI-Bold'" font-size="18">Be Advised</text>
<g>
	<path fill="#1C2F5B" d="M4.563,340.206v-42.012h14.883c14.923,0,22.384,6.826,22.384,20.479c0,6.543-2.036,11.768-6.108,15.674
		s-9.497,5.858-16.274,5.858H4.563z M14.025,305.899v26.631h4.688c4.102,0,7.318-1.229,9.653-3.69
		c2.333-2.461,3.501-5.812,3.501-10.05c0-4.003-1.157-7.153-3.473-9.448c-2.314-2.295-5.562-3.441-9.741-3.441L14.025,305.899
		L14.025,305.899z"/>
	<path fill="#1C2F5B" d="M85.158,340.206h-9.492v-17.11H58.264v17.109h-9.463v-42.011h9.463v16.758h17.402v-16.758h9.492V340.206z"
		/>
	<path fill="#1C2F5B" d="M119.963,340.206H94.768v-42.012h24.229v7.705h-14.767v9.346h13.74v7.677h-13.74v9.608h15.732V340.206z"/>
	<path fill="#1C2F5B" d="M151.897,340.206h-25.194v-42.012h24.229v7.705h-14.767v9.346h13.739v7.677h-13.739v9.608h15.731
		L151.897,340.206L151.897,340.206z"/>
	<path fill="#1C2F5B" d="M168.098,325.733v14.473h-9.463v-42.012h14.824c10.586,0,15.879,4.464,15.879,13.389
		c0,4.22-1.52,7.632-4.556,10.239c-3.037,2.607-7.096,3.911-12.174,3.911H168.098z M168.098,305.46v13.097h3.721
		c5.039,0,7.56-2.207,7.56-6.621c0-4.316-2.521-6.476-7.56-6.476H168.098z"/>
</g>
<g>
	<path fill="#1C2F5B" d="M281.06,343.252V301.24h2.9v42.012H281.06z"/>
	<path fill="#1C2F5B" d="M324.448,343.252l-25.02-33.955c-0.508-0.684-0.957-1.367-1.349-2.051l-0.381-0.586h-0.117
		c0.039,0.508,0.06,1.123,0.06,1.846v34.746h-2.899V301.24h2.227l24.844,33.662c0.547,0.742,1.143,1.641,1.787,2.695h0.146
		c-0.098-1.367-0.146-2.539-0.146-3.517V301.24h2.899v42.012H324.448z"/>
	<path fill="#1C2F5B" d="M335.962,341.758v-3.311c3.008,1.914,6.055,2.871,9.141,2.871c3.281,0,5.771-0.678,7.471-2.036
		c1.699-1.356,2.549-3.257,2.549-5.698c0-2.148-0.57-3.861-1.714-5.142c-1.143-1.278-3.618-3.022-7.427-5.229
		c-4.258-2.479-6.953-4.556-8.086-6.226s-1.699-3.599-1.699-5.786c0-2.969,1.152-5.488,3.457-7.559
		c2.306-2.071,5.381-3.105,9.229-3.105c2.5,0,5,0.42,7.5,1.26v3.047c-2.461-1.112-5.088-1.67-7.881-1.67
		c-2.853,0-5.112,0.724-6.782,2.168c-1.67,1.445-2.505,3.281-2.505,5.508c0,2.148,0.57,3.857,1.714,5.127
		c1.143,1.271,3.607,2.998,7.396,5.187c3.927,2.228,6.538,4.204,7.837,5.933c1.3,1.729,1.948,3.717,1.948,5.963
		c0,3.223-1.118,5.85-3.354,7.881c-2.236,2.031-5.396,3.047-9.479,3.047c-1.445,0-3.109-0.225-4.995-0.674
		C338.399,342.863,336.957,342.344,335.962,341.758z"/>
	<path fill="#1C2F5B" d="M367.105,343.252V301.24h2.9v42.012H367.105z"/>
	<path fill="#1C2F5B" d="M411.166,340.322c-4.336,2.441-8.799,3.662-13.389,3.662c-5.723,0-10.352-1.943-13.887-5.83
		s-5.303-8.984-5.303-15.293c0-6.367,1.903-11.68,5.713-15.938c3.809-4.259,8.896-6.388,15.264-6.388
		c3.691,0,7.275,0.742,10.752,2.228v3.164c-3.809-1.836-7.529-2.754-11.162-2.754c-5.293,0-9.546,1.807-12.759,5.42
		c-3.213,3.612-4.819,8.223-4.819,13.828c0,5.897,1.51,10.521,4.526,13.871c3.018,3.352,7.085,5.024,12.202,5.024
		c3.789,0,7.108-0.82,9.961-2.461V325h-9.902v-2.637h12.804L411.166,340.322L411.166,340.322z"/>
	<path fill="#1C2F5B" d="M447.817,343.252v-20.156h-24.053v20.155h-2.9V301.24h2.9v19.219h24.053V301.24h2.871v42.012H447.817z"/>
	<path fill="#1C2F5B" d="M472.865,303.906v39.346h-2.871v-39.346h-12.129v-2.666h27.129v2.666H472.865z"/>
	<path fill="#1C2F5B" d="M490.824,341.758v-3.311c3.008,1.914,6.056,2.871,9.142,2.871c3.28,0,5.771-0.678,7.471-2.036
		c1.699-1.356,2.549-3.257,2.549-5.698c0-2.148-0.571-3.861-1.714-5.142c-1.143-1.278-3.618-3.022-7.427-5.229
		c-4.258-2.479-6.953-4.556-8.086-6.226c-1.134-1.67-1.699-3.599-1.699-5.786c0-2.969,1.152-5.488,3.457-7.559
		c2.305-2.071,5.381-3.105,9.229-3.105c2.5,0,5,0.42,7.5,1.26v3.047c-2.461-1.112-5.088-1.67-7.881-1.67
		c-2.852,0-5.111,0.724-6.782,2.168c-1.67,1.445-2.505,3.281-2.505,5.508c0,2.148,0.571,3.857,1.714,5.127
		c1.144,1.271,3.608,2.998,7.397,5.187c3.926,2.228,6.538,4.204,7.837,5.933c1.299,1.729,1.948,3.717,1.948,5.963
		c0,3.223-1.118,5.85-3.354,7.881c-2.235,2.031-5.396,3.047-9.478,3.047c-1.445,0-3.11-0.225-4.995-0.674
		S491.821,342.344,490.824,341.758z"/>
</g>
<polygon fill="#007440" fill-opacity="0" points="233.66,293.678 202.75,319.012 233.66,343.928 "/>
<polygon fill="#007440" points="234.22,341.119 205.228,316.981 202.266,319.375 233.747,344.397 "/>
<polygon fill="#007440" points="234.699,331.365 211.136,312.139 208.098,314.629 234.22,335.422 "/>
<polygon fill="#007440" points="244.22,326.777 217.112,307.422 214.184,309.822 243.66,331.391 "/>
<polygon fill="#007440" points="237.779,311.857 223.642,302.108 220.48,304.661 237.779,316.734 "/>
<polygon fill="#007440" points="238.683,303.699 228.748,297.697 225.965,299.907 238.166,307.272 "/>
<polygon fill="#007440" points="243.579,302.014 233.644,294.012 231.637,295.604 243.062,305.588 "/>
<polygon fill="#F1A11F" points="233.71,294.012 264.621,319.346 233.71,344.262 "/>
<path fill="#007440" d="M233.71,311.762"/>
<path fill="#F1A11F" d="M310.716,356.627h200.043c1.329,0,2.405-0.803,2.405-1.792l0,0c0-0.989-1.076-1.792-2.405-1.792H310.716"/>
<path fill="#007440" d="M303.924,356.627h-21.416c-0.989,0-1.792-0.803-1.792-1.792l0,0c0-0.989,0.803-1.792,1.792-1.792h21.416"/>
<circle fill="#F1A11F" cx="368.799" cy="289.627" r="6"/>
<g>
	<path fill="#333333" d="M418.406,377.752v-12.604h4.588c1.406,0,2.487,0.258,3.243,0.773c0.756,0.514,1.134,1.241,1.134,2.18
		c0,0.68-0.229,1.273-0.688,1.783c-0.461,0.511-1.048,0.864-1.763,1.063v0.035c0.896,0.11,1.611,0.442,2.148,0.993
		c0.535,0.551,0.804,1.222,0.804,2.013c0,1.153-0.412,2.069-1.238,2.746c-0.826,0.678-1.954,1.016-3.385,1.016L418.406,377.752
		L418.406,377.752z M421.245,367.24v2.988h1.248c0.586,0,1.047-0.143,1.385-0.426c0.337-0.285,0.506-0.677,0.506-1.174
		c0-0.927-0.691-1.39-2.074-1.39L421.245,367.24L421.245,367.24z M421.245,372.338v3.322h1.538c0.656,0,1.17-0.152,1.543-0.457
		c0.371-0.305,0.559-0.721,0.559-1.248c0-0.504-0.185-0.898-0.55-1.188c-0.366-0.287-0.878-0.43-1.533-0.43H421.245L421.245,372.338
		z"/>
	<path fill="#333333" d="M437.761,374.043h-5.871c0.094,1.307,0.917,1.961,2.47,1.961c0.99,0,1.86-0.234,2.61-0.703v2.004
		c-0.832,0.444-1.913,0.668-3.243,0.668c-1.453,0-2.581-0.402-3.384-1.209c-0.804-0.806-1.204-1.93-1.204-3.371
		c0-1.493,0.434-2.678,1.301-3.551s1.934-1.31,3.199-1.31c1.313,0,2.327,0.39,3.045,1.169s1.077,1.837,1.077,3.173V374.043
		L437.761,374.043z M435.186,372.338c0-1.289-0.521-1.934-1.564-1.934c-0.444,0-0.83,0.186-1.155,0.554
		c-0.324,0.369-0.522,0.829-0.594,1.38H435.186z"/>
	<path fill="#333333" d="M455.734,377.752h-3.094l-0.896-2.804h-4.481l-0.889,2.804h-3.075l4.588-12.604h3.366L455.734,377.752z
		 M451.094,372.768l-1.354-4.235c-0.1-0.315-0.17-0.694-0.211-1.134h-0.069c-0.029,0.369-0.104,0.734-0.221,1.099l-1.371,4.271
		H451.094z"/>
	<path fill="#333333" d="M465.842,377.752h-2.777v-1.238h-0.035c-0.633,0.973-1.562,1.459-2.786,1.459
		c-1.125,0-2.029-0.396-2.716-1.19c-0.686-0.794-1.028-1.903-1.028-3.327c0-1.488,0.378-2.681,1.135-3.576
		c0.756-0.896,1.746-1.346,2.971-1.346c1.16,0,1.969,0.416,2.426,1.248h0.035v-5.354h2.777L465.842,377.752L465.842,377.752z
		 M463.116,373.375v-0.677c0-0.586-0.17-1.072-0.51-1.459c-0.34-0.388-0.782-0.58-1.327-0.58c-0.615,0-1.096,0.241-1.44,0.726
		c-0.347,0.482-0.52,1.146-0.52,1.99c0,0.791,0.167,1.4,0.501,1.828s0.797,0.643,1.389,0.643c0.563,0,1.021-0.227,1.375-0.678
		C462.939,374.717,463.116,374.119,463.116,373.375z"/>
	<path fill="#333333" d="M476.748,368.752l-3.349,9h-3.164l-3.189-9h2.971l1.563,5.547c0.177,0.627,0.278,1.159,0.309,1.6h0.035
		c0.041-0.416,0.148-0.932,0.324-1.547l1.601-5.6H476.748z"/>
	<path fill="#333333" d="M479.342,367.328c-0.47,0-0.854-0.139-1.151-0.418c-0.299-0.277-0.448-0.619-0.448-1.023
		c0-0.416,0.149-0.756,0.448-1.02s0.683-0.396,1.151-0.396c0.475,0,0.858,0.133,1.154,0.396c0.297,0.264,0.444,0.604,0.444,1.02
		c0,0.422-0.147,0.769-0.444,1.037C480.2,367.193,479.816,367.328,479.342,367.328z M480.713,377.752h-2.777v-9h2.777V377.752z"/>
	<path fill="#333333" d="M482.462,377.514v-2.25c0.457,0.275,0.911,0.48,1.366,0.615c0.453,0.135,0.884,0.202,1.287,0.202
		c0.492,0,0.88-0.067,1.164-0.202s0.427-0.34,0.427-0.615c0-0.176-0.063-0.321-0.192-0.438s-0.294-0.22-0.497-0.308
		c-0.201-0.088-0.423-0.168-0.663-0.237c-0.24-0.07-0.472-0.149-0.694-0.237c-0.356-0.135-0.672-0.279-0.944-0.436
		c-0.271-0.154-0.5-0.335-0.687-0.54c-0.184-0.205-0.324-0.442-0.422-0.712c-0.096-0.27-0.145-0.59-0.145-0.958
		c0-0.505,0.108-0.938,0.329-1.302c0.22-0.362,0.513-0.66,0.88-0.892c0.364-0.231,0.783-0.401,1.256-0.51
		c0.472-0.109,0.963-0.163,1.473-0.163c0.398,0,0.803,0.029,1.213,0.093c0.41,0.062,0.814,0.15,1.213,0.269v2.145
		c-0.352-0.205-0.729-0.357-1.129-0.461c-0.401-0.104-0.796-0.154-1.183-0.154c-0.183,0-0.354,0.018-0.516,0.049
		c-0.16,0.033-0.303,0.078-0.426,0.142c-0.123,0.062-0.22,0.142-0.29,0.235c-0.069,0.099-0.104,0.207-0.104,0.33
		c0,0.164,0.053,0.306,0.158,0.422c0.104,0.117,0.242,0.22,0.412,0.304c0.17,0.086,0.358,0.162,0.566,0.229s0.415,0.137,0.62,0.207
		c0.369,0.129,0.703,0.27,1.002,0.422c0.299,0.151,0.555,0.33,0.769,0.535c0.215,0.205,0.379,0.445,0.492,0.721
		c0.115,0.275,0.172,0.604,0.172,0.984c0,0.533-0.115,0.989-0.348,1.366c-0.231,0.379-0.539,0.687-0.922,0.924
		c-0.385,0.236-0.826,0.41-1.328,0.519c-0.5,0.107-1.021,0.162-1.56,0.162C484.223,377.971,483.306,377.819,482.462,377.514z"/>
	<path fill="#333333" d="M499.056,374.043h-5.871c0.094,1.307,0.917,1.961,2.47,1.961c0.99,0,1.86-0.234,2.61-0.703v2.004
		c-0.832,0.444-1.913,0.668-3.243,0.668c-1.453,0-2.581-0.402-3.384-1.209c-0.804-0.806-1.204-1.93-1.204-3.371
		c0-1.493,0.434-2.678,1.301-3.551s1.934-1.31,3.199-1.31c1.313,0,2.327,0.39,3.045,1.169s1.077,1.837,1.077,3.173V374.043
		L499.056,374.043z M496.48,372.338c0-1.289-0.521-1.934-1.564-1.934c-0.444,0-0.829,0.186-1.155,0.554
		c-0.324,0.369-0.522,0.829-0.594,1.38H496.48z"/>
	<path fill="#333333" d="M509.515,377.752h-2.777v-1.238h-0.035c-0.633,0.973-1.562,1.459-2.785,1.459
		c-1.125,0-2.03-0.396-2.717-1.19c-0.686-0.794-1.027-1.903-1.027-3.327c0-1.488,0.378-2.681,1.134-3.576
		c0.756-0.896,1.746-1.346,2.971-1.346c1.16,0,1.969,0.416,2.426,1.248h0.035v-5.354h2.777L509.515,377.752L509.515,377.752z
		 M506.789,373.375v-0.677c0-0.586-0.17-1.072-0.51-1.459c-0.34-0.388-0.782-0.58-1.327-0.58c-0.614,0-1.096,0.241-1.44,0.726
		c-0.347,0.482-0.52,1.146-0.52,1.99c0,0.791,0.167,1.4,0.501,1.828s0.797,0.643,1.39,0.643c0.563,0,1.021-0.227,1.375-0.678
		C506.612,374.717,506.789,374.119,506.789,373.375z"/>
</g>
<text transform="matrix(1 0 0 1 13.4597 232.7158)" fill="#1C2F5B" font-family="'SegoeUI-Bold'" font-size="60">DHEEP</text>
<text transform="matrix(1 0 0 1 289.3713 235.7617)" fill="#1C2F5B" font-family="'SegoeUI-Light'" font-size="60">INSIGHTS</text>
<polygon fill="#007440" fill-opacity="0" points="247.362,186.188 216.452,211.521 247.362,236.438 "/>
<polygon fill="#007440" points="247.922,233.629 218.93,209.491 215.968,211.885 247.449,236.907 "/>
<polygon fill="#007440" points="248.401,223.875 224.838,204.648 221.8,207.139 247.922,227.932 "/>
<polygon fill="#007440" points="257.922,219.287 230.814,199.932 227.886,202.332 257.362,223.9 "/>
<polygon fill="#007440" points="251.481,204.367 237.344,194.618 234.182,197.171 251.481,209.244 "/>
<polygon fill="#007440" points="252.385,196.209 242.45,190.207 239.667,192.417 251.868,199.782 "/>
<polygon fill="#007440" points="257.281,194.523 247.346,186.521 245.339,188.114 256.764,198.098 "/>
<polygon fill="#F1A11F" points="247.413,186.521 278.323,211.855 247.413,236.771 "/>
<path fill="#007440" d="M247.413,204.271"/>
<path fill="#F1A11F" d="M324.418,249.137h200.043c1.328,0,2.405-0.803,2.405-1.792l0,0c0-0.989-1.077-1.792-2.405-1.792H324.418"/>
<path fill="#007440" d="M317.626,249.137H296.21c-0.989,0-1.792-0.803-1.792-1.792l0,0c0-0.989,0.803-1.792,1.792-1.792h21.415"/>
<circle fill="#F1A11F" cx="382.501" cy="182.137" r="6"/>
<text transform="matrix(1 0 0 1 430.6682 270.2617)" fill="#333333" font-family="'SegoeUI-Bold'" font-size="18">Be Advised</text>
<g>
	<path fill="#800001" d="M152.791,72.388v9.286h-19.364v-3.186c-3.47,2.513-7.135,3.769-10.994,3.769
		c-3.998,0-7.447-1.138-10.348-3.415c-2.901-2.275-4.352-5.33-4.352-9.161c0-3.858,1.526-7.093,4.581-9.703
		c3.054-2.609,6.996-3.914,11.827-3.914c2.692,0,5.789,0.681,9.286,2.04v-2.457c0-2.054-0.694-3.741-2.082-5.06
		c-1.388-1.318-3.248-1.978-5.58-1.978c-2.888,0-5.358,1.055-7.413,3.165L107.983,49.9c2.999-6.357,9.508-9.537,19.531-9.537
		c3.886,0,7.106,0.438,9.661,1.312c2.554,0.875,4.456,2.006,5.705,3.394c1.25,1.388,2.13,2.908,2.645,4.56
		c0.513,1.652,0.771,4.338,0.771,8.058v14.7H152.791z M133.427,66.766c-3.109-1.943-5.594-2.915-7.454-2.915
		c-1.472,0-2.811,0.431-4.019,1.291c-1.208,0.86-1.811,2.11-1.811,3.748c0,1.472,0.485,2.734,1.458,3.789
		c0.971,1.056,2.221,1.583,3.748,1.583c2.387,0,5.081-1.402,8.079-4.206V66.766z"/>
	<path fill="#800001" d="M155.914,81.674v-9.286h5.83l8.704-10.411l-8.704-11.327h-5.83v-9.287h15.491l7.246,11.036l7.954-11.036
		h12.16v9.287h-5.414l-8.162,9.703l9.495,12.035h5.414v9.286h-15.449l-7.829-11.327l-8.412,11.327H155.914z"/>
	<path fill="#800001" d="M217.755,82.257L207.177,50.65h-5.122v-9.287h21.946v9.287h-4.396l4.96,14.955l8.229-24.241h10.675
		l7.973,24.272l4.956-14.986h-4.537v-9.287h19.489v9.287h-5.039l-10.453,31.607h-11.16l-7.912-23.694l-7.787,23.694H217.755z"/>
	<path fill="#800001" d="M293.67,82.59c-5.941,0-10.959-1.88-15.055-5.643c-4.095-3.762-6.143-8.918-6.143-15.471
		c0-6.551,2.048-11.708,6.143-15.47c4.096-3.761,9.113-5.643,15.055-5.643c5.969,0,10.994,1.881,15.074,5.643
		c4.082,3.762,6.121,8.919,6.121,15.47c0,6.47-2.02,11.605-6.059,15.408C304.768,80.688,299.721,82.59,293.67,82.59z
		 M293.627,72.596c2.389,0,4.324-0.916,5.811-2.748c1.484-1.833,2.227-4.706,2.227-8.62c0-3.442-0.721-6.128-2.164-8.059
		c-1.443-1.929-3.402-2.894-5.873-2.894c-5.303,0-7.953,3.831-7.953,11.494c0,3.138,0.66,5.726,1.979,7.767
		C288.971,71.575,290.963,72.596,293.627,72.596z"/>
	<path fill="#800001" d="M348.764,72.388v9.286h-28.359v-9.286h7.454V50.65h-6.996v-9.287h18.781v10.244
		c0.722-2.942,2.366-5.49,4.935-7.642c2.567-2.151,5.602-3.227,9.1-3.227c0.583,0,1.276,0.014,2.082,0.042v12.16
		c-3.248,0-5.899,0.361-7.954,1.083c-2.055,0.722-3.748,2.305-5.08,4.748c-1.333,2.443-1.999,5.33-1.999,8.661v4.956H348.764z"/>
	<path fill="#800001" d="M359.257,81.674v-9.286h6.496V33.035h-6.496v-9.286h19.322v36.583l13.84-11.265h-8.51v-7.704h24.361v8.162
		h-4.039l-11.789,10.062l10.745,12.801h5.583v9.286h-12.368l-17.823-21.342v12.514h4.872v8.828H359.257z"/>
	<path fill="#800001" d="M416.391,81.674V67.807h9.412c0.083,1.889,0.957,3.394,2.623,4.519c1.666,1.124,3.72,1.687,6.163,1.687
		c2.109,0,3.755-0.368,4.935-1.104s1.771-1.673,1.771-2.812c0-1.055-0.542-1.874-1.624-2.457c-1.083-0.583-3.207-1.139-6.371-1.669
		c-6.523-1.061-11.229-2.665-14.117-4.815c-2.888-2.151-4.331-5.002-4.331-8.554c0-3.33,1.359-6.139,4.081-8.428
		c2.72-2.289,6.329-3.434,10.827-3.434c3.637,0,7.037,0.673,10.202,2.02v-1.395h9.203v11.702h-9.203
		c-0.833-2.804-3.775-4.206-8.828-4.206c-3.721,0-5.58,1.028-5.58,3.082c0,0.777,0.381,1.368,1.145,1.77
		c0.764,0.403,2.714,0.882,5.852,1.436c4.969,0.86,8.688,1.721,11.16,2.581c2.471,0.86,4.448,2.284,5.934,4.27
		s2.229,4.366,2.229,7.142c0,3.942-1.409,7.17-4.227,9.683c-2.818,2.513-6.809,3.769-11.973,3.769c-4.804,0-8.093-0.979-9.869-2.936
		v2.02H416.391z"/>
	<path fill="#800001" d="M460.533,81.674v-13.95h13.909v13.95H460.533z"/>
</g>
<circle fill="#ED2E38" cx="55.733" cy="58.61" r="49.104"/>
<g>
	<path fill="#FFFFFF" d="M39.451,89.23v-9.786h8.704V41.091h-8.704v13.492h-9.953V31.305H82.01v23.278h-9.828V41.091h-8.953v38.353
		h8.703v9.786H39.451z"/>
</g>
</svg>
